<?xml version="1.0" encoding="utf-8"?>
<!-- Generator: Adobe Illustrator 15.0.2, SVG Export Plug-In . SVG Version: 6.00 Build 0)  -->
<!DOCTYPE svg PUBLIC "-//W3C//DTD SVG 1.1//EN" "http://www.w3.org/Graphics/SVG/1.1/DTD/svg11.dtd">
<svg version="1.1" id="Layer_1" xmlns="http://www.w3.org/2000/svg" xmlns:xlink="http://www.w3.org/1999/xlink" x="0px" y="0px"
	 width="162px" height="45px" viewBox="0 0 162 45" enable-background="new 0 0 162 45" xml:space="preserve">
<g>
	<path fill-rule="evenodd" clip-rule="evenodd" d="M53.991,8.499c0,1.953-1.053,3.182-3.423,3.182c-0.286,0-0.659-0.022-0.988-0.087
		V6.787c0-0.33,0.022-0.79,0.176-1.031c0.175-0.242,0.592-0.264,1.141-0.264C52.674,5.492,53.991,6.545,53.991,8.499L53.991,8.499z
		 M59.038,19.163l-0.351-0.044c-0.812-0.11-1.12-0.044-2.019-1.47l-2.26-3.555c-0.768-1.186-0.921-1.427-1.448-1.822
		c1.536-0.175,4.125-1.163,4.125-3.73c0-2.743-2.655-4.103-6.167-4.103c-0.899,0-4.542,0.021-5.946,0v0.833l0.658,0.044
		c0.899,0.065,1.097,0.175,1.097,1.47v10.862c0,1.294-0.198,1.404-1.097,1.47l-0.658,0.044v0.834c1.404-0.022,5.661-0.022,6.363,0
		v-0.834l-0.746-0.044c-0.899-0.066-1.009-0.153-1.009-1.47v-5.047c0.614,0,0.834,0.153,1.646,1.492l2.084,3.555
		c0.285,0.504,1.338,1.997,1.514,2.348c0.373-0.022,3.95-0.022,4.213,0V19.163L59.038,19.163z"/>
	<path d="M66.267,15.856V8.898c1.097-0.127,2.665-0.31,2.669-0.363c-0.015,0.255-0.013,9.381-0.013,9.381
		c0,1.14,0.285,1.243,1.106,1.357l0.594,0.085v0.71c-0.286-0.021-3.488-0.022-4.091,0.001l-0.164-2.009l-0.06,0.104
		c-0.425,0.739-1.221,2.085-3.123,2.085c-2.614,0-3.275-1.699-3.275-3.096v-6.469c0-0.626-0.219-0.796-0.794-0.865
		c0,0-0.564-0.062-0.906-0.067V9.042c1.644-0.111,3.536-0.392,4.444-0.507c-0.015,0.266-0.087,1.652-0.087,2.419v5.26
		c0,1.605,0.289,2.634,1.493,2.634C65.23,18.848,66.267,17.478,66.267,15.856L66.267,15.856z"/>
	<path d="M74.977,20.25c-1.218,0-2.37-0.22-3.478-0.638l-0.131-2.756h0.707c0.016,1.524,0.974,2.619,2.947,2.619
		c1.358,0,2.298-0.795,2.298-1.962c0-1.075-0.757-1.645-1.548-1.894l-1.209-0.358c-1.857-0.538-3.331-1.18-3.331-3.411
		c0-1.961,2.12-3.343,4.395-3.343c1.778,0,2.798,0.432,3.254,0.637l0.131,2.624h-0.707c-0.018-1.612-1.219-2.484-2.678-2.484
		c-1.117,0-1.94,0.822-1.94,1.895c0,0.891,0.46,1.464,1.348,1.737l1.432,0.425c1.638,0.493,3.331,1.136,3.331,3.232
		C79.797,18.782,78.01,20.25,74.977,20.25L74.977,20.25z"/>
	<path d="M84.609,20.25c-1.219,0-2.371-0.22-3.479-0.638L81,16.856h0.707c0.015,1.524,0.973,2.619,2.948,2.619
		c1.357,0,2.297-0.795,2.297-1.962c0-1.075-0.756-1.645-1.549-1.894l-1.209-0.358c-1.857-0.538-3.33-1.18-3.33-3.411
		c0-1.961,2.119-3.343,4.394-3.343c1.777,0,2.799,0.432,3.254,0.637l0.131,2.624h-0.707c-0.018-1.612-1.219-2.484-2.678-2.484
		c-1.117,0-1.939,0.822-1.939,1.895c0,0.891,0.459,1.464,1.348,1.737l1.432,0.425c1.637,0.493,3.33,1.136,3.33,3.232
		C89.428,18.782,87.641,20.25,84.609,20.25L84.609,20.25z"/>
	<path fill-rule="evenodd" clip-rule="evenodd" d="M97.914,13.231c-0.115-2.253-0.877-3.858-2.346-3.858
		c-1.625,0-2.432,1.851-2.5,3.819L97.914,13.231L97.914,13.231z M93.092,14.14c0,1.912,0.781,5.067,3.148,5.067
		c0.844,0,1.449-0.175,1.963-0.464c0.256-0.144,0.488-0.316,0.715-0.508c0.219-0.185,0.434-0.389,0.66-0.605l0.791,0.604
		c-0.951,0.995-1.955,2.018-4.555,2.018c-3.754,0-5.469-2.997-5.469-5.983c0-2.694,2.139-5.782,5.289-5.782
		c3.473,0,5.031,2.639,5.045,5.655L93.092,14.14L93.092,14.14z"/>
	<path d="M107.148,19.229l-0.527-0.065c-0.791-0.11-1.053-0.197-1.053-1.339V4c-0.285,0.11-2.523,0.395-4.17,0.505v0.768
		c0.33,0,0.746,0.044,0.746,0.044c0.527,0.021,0.746,0.219,0.746,0.811v11.696c0,1.185-0.264,1.229-1.053,1.339l-0.482,0.065v0.769
		c0.855-0.022,5.375-0.022,5.793,0V19.229L107.148,19.229z"/>
	<path d="M51.125,39.515l-0.483-0.044c-0.899-0.066-1.097-0.198-1.097-1.471V27.138c0-1.339,0.197-1.36,1.097-1.47l0.483-0.045
		V24.79c-0.877,0.022-5.135,0.022-6.012,0v0.833l0.482,0.045c0.9,0.109,1.098,0.131,1.098,1.47V38c0,1.272-0.198,1.404-1.098,1.471
		l-0.482,0.044v0.833c0.877-0.021,5.573-0.021,6.012,0V39.515L51.125,39.515z"/>
	<path d="M64.587,40.348c-0.289-0.001-4.137-0.001-4.444,0c0.065-1.132,0.087-2.387,0.087-3.073v-4.477
		c0-1.608-0.357-2.634-1.56-2.634c-1.17,0-2.275,1.369-2.275,2.992v5.014c0,1.158,0.235,1.333,1.108,1.402l0.592,0.063v0.711
		c-0.42-0.022-5.185-0.022-6.058,0v-0.711l0.593-0.063c0.873-0.069,1.108-0.222,1.108-1.402v-7.208c0-0.626-0.219-0.796-0.794-0.864
		c0,0-0.564-0.063-0.907-0.067v-0.712c1.602-0.108,3.681-0.376,4.114-0.499l0.139,2.135l0.062-0.107
		c0.424-0.737,1.265-2.085,3.19-2.085c2.504,0,3.342,1.701,3.342,3.096v6.312c0,1.158,0.236,1.333,1.108,1.402l0.593,0.063V40.348
		L64.587,40.348z"/>
	<path d="M74.458,29.913c-0.494,0.07-0.769,0.405-1.105,1.37l-2.484,6.861c-0.176,0.397-0.699,1.902-0.908,2.377H68.91
		c-0.089-0.136-0.254-0.536-0.436-0.999c-0.188-0.48-0.39-1.02-0.535-1.378l-3.067-6.864c-0.106-0.225-0.186-0.416-0.257-0.579
		c-0.071-0.163-0.134-0.299-0.208-0.41c-0.15-0.228-0.34-0.344-0.708-0.379l-0.615-0.063v-0.711c0.868,0.023,4.81,0.023,5.678,0
		v0.711l-0.705,0.063c-0.349,0.023-0.527,0.169-0.527,0.486c0,0.276,0.114,0.642,0.227,0.911l2.388,5.835l2.002-5.837
		c0.034-0.102,0.079-0.231,0.115-0.37c0.037-0.138,0.065-0.288,0.065-0.427c0-0.353-0.167-0.574-0.504-0.599l-0.637-0.063v-0.71
		c0.437,0.024,3.451,0.024,3.887,0v0.71L74.458,29.913L74.458,29.913z"/>
	<path fill-rule="evenodd" clip-rule="evenodd" d="M82.014,33.505c-0.114-2.252-0.875-3.857-2.345-3.857
		c-1.625,0-2.432,1.851-2.5,3.819L82.014,33.505L82.014,33.505z M77.191,34.415c0,1.911,0.781,5.066,3.148,5.066
		c0.846,0,1.451-0.175,1.963-0.464c0.256-0.144,0.488-0.316,0.715-0.509c0.219-0.185,0.434-0.389,0.66-0.604l0.793,0.604
		c-0.951,0.995-1.955,2.018-4.556,2.018c-3.754,0-5.468-2.997-5.468-5.983c0-2.694,2.138-5.782,5.29-5.782
		c3.471,0,5.032,2.639,5.043,5.655H77.191L77.191,34.415z"/>
	<path d="M89.629,40.525c-1.217,0-2.369-0.22-3.477-0.638l-0.131-2.757h0.707c0.014,1.524,0.973,2.618,2.945,2.618
		c1.357,0,2.299-0.794,2.299-1.962c0-1.075-0.758-1.645-1.549-1.894l-1.209-0.358c-1.857-0.537-3.33-1.179-3.33-3.411
		c0-1.961,2.119-3.342,4.395-3.342c1.777,0,2.799,0.432,3.254,0.637l0.131,2.623h-0.707c-0.018-1.612-1.219-2.484-2.678-2.484
		c-1.117,0-1.941,0.822-1.941,1.896c0,0.891,0.461,1.464,1.348,1.737l1.434,0.425c1.637,0.493,3.33,1.136,3.33,3.232
		C94.449,39.057,92.662,40.525,89.629,40.525L89.629,40.525z"/>
	<path d="M101.428,39.295c-0.244,0.196-0.457,0.374-0.66,0.531c-0.211,0.164-0.412,0.305-0.621,0.42
		c-0.42,0.229-0.883,0.356-1.572,0.356c-1.686,0-2.736-0.706-2.736-2.47V27.388l2.654-2.648v4.545h2.439v0.978h-2.439v7.826
		c0,1.005,0.201,1.516,0.865,1.516c0.271,0,0.549-0.158,0.799-0.347c0.238-0.179,0.457-0.392,0.633-0.537L101.428,39.295
		L101.428,39.295z"/>
	<path d="M121.027,40.348c-0.289-0.001-4.137-0.001-4.443,0c0.064-1.132,0.086-2.387,0.086-3.073v-4.477
		c0-1.607-0.334-2.634-1.537-2.634c-1.006,0-2.207,1.047-2.207,2.433v5.573c0,1.158,0.234,1.333,1.107,1.402l0.594,0.063v0.711
		c-0.418-0.022-4.92-0.022-5.791,0v-0.711l0.504-0.063c0.721-0.069,0.93-0.25,0.93-1.402v-5.372c0-1.61-0.426-2.634-1.627-2.634
		c-1.172,0-2.209,1.37-2.209,2.992v5.014c0,1.15,0.162,1.333,0.93,1.402l0.504,0.063v0.711c-0.418-0.022-4.92-0.022-5.791,0v-0.711
		l0.594-0.063c0.873-0.069,1.107-0.222,1.107-1.402v-7.208c0-0.626-0.219-0.796-0.793-0.864c0,0-0.564-0.063-0.908-0.067v-0.712
		c1.602-0.108,3.682-0.376,4.115-0.499l0.139,2.135l0.062-0.107c0.424-0.738,1.221-2.085,3.123-2.085
		c1.887,0,2.902,0.975,3.254,2.056l0.027,0.08l0.041-0.073c0.424-0.737,1.244-2.062,3.168-2.062c2.504,0,3.32,1.701,3.32,3.096
		v6.312c0,1.158,0.236,1.333,1.109,1.402l0.592,0.063V40.348L121.027,40.348z"/>
	<path fill-rule="evenodd" clip-rule="evenodd" d="M128.645,33.505c-0.113-2.252-0.875-3.857-2.346-3.857
		c-1.625,0-2.432,1.851-2.498,3.819L128.645,33.505L128.645,33.505z M123.822,34.415c0,1.911,0.781,5.066,3.148,5.066
		c0.846,0,1.451-0.175,1.963-0.464c0.256-0.144,0.488-0.316,0.715-0.509c0.219-0.185,0.434-0.389,0.66-0.604l0.793,0.604
		c-0.951,0.995-1.955,2.018-4.557,2.018c-3.754,0-5.467-2.997-5.467-5.983c0-2.694,2.137-5.782,5.289-5.782
		c3.471,0,5.029,2.639,5.043,5.655H123.822L123.822,34.415z"/>
	<path d="M144.406,40.348c-0.289-0.001-4.137-0.001-4.443,0c0.064-1.132,0.088-2.387,0.088-3.073v-4.477
		c0-1.608-0.357-2.634-1.561-2.634c-1.17,0-2.275,1.369-2.275,2.992v5.014c0,1.158,0.236,1.333,1.107,1.402l0.594,0.063v0.711
		c-0.42-0.022-5.186-0.022-6.059,0v-0.711l0.594-0.063c0.871-0.069,1.107-0.222,1.107-1.402v-7.208c0-0.626-0.219-0.796-0.793-0.864
		c0,0-0.564-0.063-0.908-0.067v-0.712c1.602-0.108,3.682-0.376,4.115-0.499l0.139,2.135l0.061-0.107
		c0.426-0.737,1.266-2.085,3.191-2.085c2.504,0,3.342,1.701,3.342,3.096v6.312c0,1.158,0.236,1.333,1.109,1.402l0.592,0.063V40.348
		L144.406,40.348z"/>
	<path d="M155.227,40.525c-1.219,0-2.369-0.22-3.479-0.638l-0.131-2.757h0.707c0.016,1.524,0.975,2.618,2.947,2.618
		c1.357,0,2.299-0.794,2.299-1.962c0-1.075-0.758-1.645-1.549-1.894l-1.209-0.358c-1.857-0.537-3.33-1.179-3.33-3.411
		c0-1.961,2.119-3.342,4.393-3.342c1.779,0,2.799,0.432,3.254,0.637l0.133,2.623h-0.707c-0.02-1.612-1.219-2.484-2.68-2.484
		c-1.115,0-1.939,0.822-1.939,1.896c0,0.891,0.461,1.464,1.348,1.737l1.432,0.425c1.639,0.493,3.332,1.136,3.332,3.232
		C160.047,39.057,158.26,40.525,155.227,40.525L155.227,40.525z"/>
	<path d="M113.33,19.229l-0.525-0.065c-0.791-0.11-1.055-0.197-1.055-1.339V4c-0.285,0.11-2.523,0.395-4.168,0.505v0.768
		c0.328,0,0.746,0.044,0.746,0.044c0.525,0.021,0.746,0.219,0.746,0.811v11.696c0,1.185-0.264,1.229-1.055,1.339l-0.482,0.065v0.769
		c0.855-0.022,5.377-0.022,5.793,0V19.229L113.33,19.229z"/>
	<path d="M150.891,39.295c-0.242,0.196-0.455,0.374-0.658,0.531c-0.213,0.164-0.412,0.305-0.621,0.42
		c-0.42,0.229-0.883,0.356-1.572,0.356c-1.688,0-2.738-0.706-2.738-2.47V27.388l2.656-2.648v4.545h2.439v0.978h-2.439v7.826
		c0,1.005,0.201,1.516,0.865,1.516c0.271,0,0.549-0.158,0.797-0.347c0.24-0.179,0.459-0.392,0.635-0.537L150.891,39.295
		L150.891,39.295z"/>
	<path d="M35.689,36.982l0.33,0.67L35.689,36.982L35.689,36.982z M14.649,22.519l3.321,5.701l-6.945,12.167H2V4.46h38.223v35.926
		H30.2l3.864-6.698l1.997,3.964h1.424V7.217H4.737v30.435h1.318L14.649,22.519L14.649,22.519z M12.967,40.387l12.64-21.96
		l3.183,5.865l-9.173,16.095H12.967L12.967,40.387z M33.019,31.84l-4.82,8.547h-6.593l8.23-14.367L33.019,31.84L33.019,31.84z"/>
</g>
</svg>
